HIERARCHY
ROOT Hips
{
	OFFSET 0.00 0.00 0.00
	CHANNELS 6 Xposition Yposition Zposition Xrotation Yrotation Zrotation
	JOINT LeftUpLeg
	{
		OFFSET 3.25772 0.00000 0.00000
		CHANNELS 3 Xrotation Yrotation Zrotation
		JOINT LeftLeg
		{
			OFFSET 0.00000 -15.35355 0.00000
			CHANNELS 3 Xrotation Yrotation Zrotation
			JOINT LeftFoot
			{
				OFFSET 0.00000 -16.48949 0.00000
				CHANNELS 3 Xrotation Yrotation Zrotation
				JOINT LeftToeBase
				{
					OFFSET 0.00000 -1.72224 6.42750
					CHANNELS 3 Xrotation Yrotation Zrotation
					End Site
					{
						OFFSET 0.00000 0.00000 2.95275
					}
				}
			}
		}
	}
	JOINT RightUpLeg
	{
		OFFSET -3.25772 0.00000 0.00000
		CHANNELS 3 Xrotation Yrotation Zrotation
		JOINT RightLeg
		{
			OFFSET 0.00000 -15.35355 0.00000
			CHANNELS 3 Xrotation Yrotation Zrotation
			JOINT RightFoot
			{
				OFFSET 0.00000 -16.48949 0.00000
				CHANNELS 3 Xrotation Yrotation Zrotation
				JOINT RightToeBase
				{
					OFFSET 0.00000 -1.72224 6.42750
					CHANNELS 3 Xrotation Yrotation Zrotation
					End Site
					{
						OFFSET 0.00000 0.00000 2.95275
					}
				}
			}
		}
	}
	JOINT Spine
	{
		OFFSET 0.00000 0.03937 0.00000
		CHANNELS 3 Xrotation Yrotation Zrotation
		JOINT Spine1
		{
			OFFSET 0.00000 10.14986 0.00000
			CHANNELS 3 Xrotation Yrotation Zrotation
			JOINT Neck
			{
				OFFSET 0.00000 9.84250 0.00000
				CHANNELS 3 Xrotation Yrotation Zrotation
				JOINT Head
				{
					OFFSET 0.00000 4.54023 0.00000
					CHANNELS 3 Xrotation Yrotation Zrotation
					End Site
					{
						OFFSET 0.00000 4.52755 0.00000
					}
				}
			}
			JOINT LeftShoulder
			{
				OFFSET 0.00000 9.84250 0.00000
				CHANNELS 3 Xrotation Yrotation Zrotation
				JOINT LeftArm
				{
					OFFSET 7.21510 -0.00003 0.00000
					CHANNELS 3 Xrotation Yrotation Zrotation
					JOINT LeftForeArm
					{
						OFFSET 10.66411 -0.00004 0.00000
						CHANNELS 3 Xrotation Yrotation Zrotation
						JOINT LeftHand
						{
							OFFSET 8.93656 -0.00003 0.00000
							CHANNELS 3 Xrotation Yrotation Zrotation
							JOINT L_Wrist_End
							{
								OFFSET 3.93700 -0.00001 0.00000
								CHANNELS 3 Xrotation Yrotation Zrotation
							}
						}
					}
				}
			}
			JOINT RightShoulder
			{
				OFFSET 0.00000 9.84250 0.00000
				CHANNELS 3 Xrotation Yrotation Zrotation
				JOINT RightArm
				{
					OFFSET -7.21510 -0.00003 0.00000
					CHANNELS 3 Xrotation Yrotation Zrotation
					JOINT RightForeArm
					{
						OFFSET -10.66411 -0.00004 0.00000
						CHANNELS 3 Xrotation Yrotation Zrotation
						JOINT RightHand
						{
							OFFSET -8.93656 -0.00003 0.00000
							CHANNELS 3 Xrotation Yrotation Zrotation
							JOINT R_Wrist_End
							{
								OFFSET -5.41338 -0.00002 0.00000
								CHANNELS 3 Xrotation Yrotation Zrotation
							}
						}
					}
				}
			}
		}
	}
}
MOTION
Frames: 10
Frame Time: 0.008333
 0.2363 33.8616 7.1060 -0.4369 -3.5717 -2.0866 4.3519 25.6161 7.0802 3.3332 0.0000 -0.0000 -2.1385 3.9340 0.7777 -33.5905 0.0000 -0.0000 5.3728 5.0648 -1.9085 4.2935 -0.0000 0.0000 -0.9824 -13.0775 1.5303 -29.7880 0.0000 0.0000 -16.7213 -1.2370 -3.2572 28.2757 3.5969 2.7866 -21.0888 -12.8513 9.9395 -10.2491 -7.2863 -19.6480 9.5652 8.8875 16.4707 -25.3212 14.4408 -30.2438 -0.0000 -10.6772 -0.0000 -4.9674 3.3209 20.1417 -0.0000 0.0000 -0.0000 8.7983 -4.8221 -15.3337 -14.9649 -5.8237 24.2722 -0.0001 19.7501 0.0000 -19.1591 -14.1819 -17.9864 -0.0000 0.0000 -0.0000
 0.2363 33.8616 7.1060 -0.4369 -3.5717 -2.0866 4.3519 25.6161 7.0802 3.3332 0.0000 -0.0000 -2.1385 3.9340 0.7777 -33.5905 0.0000 -0.0000 5.3728 5.0648 -1.9085 4.2935 -0.0000 0.0000 -0.9824 -13.0775 1.5303 -29.7880 0.0000 0.0000 -16.7213 -1.2370 -3.2572 28.2757 3.5969 2.7866 -21.0888 -12.8513 9.9395 -10.2491 -7.2863 -19.6480 9.5652 8.8875 16.4707 -25.3212 14.4408 -30.2438 -0.0000 -10.6772 -0.0000 -4.9674 3.3209 20.1417 -0.0000 0.0000 -0.0000 8.7983 -4.8221 -15.3337 -14.9649 -5.8237 24.2722 -0.0001 19.7501 0.0000 -19.1591 -14.1819 -17.9864 -0.0000 0.0000 -0.0000
 0.2421 33.8651 7.1000 -0.4218 -3.5508 -2.0734 4.3490 25.6135 7.0389 3.2934 0.0000 0.0000 -2.0636 3.9411 0.7574 -33.6853 0.0000 0.0000 5.3662 5.0046 -1.9361 4.2590 -0.0000 0.0000 -0.9276 -13.0227 1.5170 -29.8334 0.0000 -0.0000 -16.6837 -1.2557 -3.3075 28.2175 3.6492 2.8778 -21.4313 -13.0233 10.1103 -9.7858 -7.1408 -20.1075 9.5638 8.8312 16.3524 -25.2420 14.3360 -30.1800 -0.0000 -10.6511 -0.0000 -5.1008 3.3583 20.0825 -0.0000 0.0000 -0.0000 8.7758 -4.8859 -15.3855 -14.9872 -5.8515 24.3014 -0.0001 19.8230 0.0000 -19.0885 -14.3021 -17.9376 -0.0000 0.0000 -0.0000
 0.2420 33.8644 7.0931 -0.4236 -3.5665 -2.0676 4.3016 25.7084 7.0543 3.3437 0.0000 0.0000 -2.0918 3.8514 0.7807 -33.6484 0.0000 0.0000 5.3357 4.9596 -1.9416 4.2958 -0.0000 0.0000 -0.9633 -12.9683 1.5077 -29.7760 0.0000 -0.0000 -16.6537 -1.2846 -3.3584 28.1862 3.6683 2.9378 -21.5491 -13.1108 10.1000 -9.5535 -7.0581 -20.1343 9.4954 8.8211 16.3262 -25.1674 14.3853 -30.1684 -0.0000 -10.6957 -0.0000 -4.9654 3.3804 20.0641 -0.0000 0.0000 -0.0000 8.7677 -4.8617 -15.4319 -14.9560 -5.8139 24.3169 -0.0001 19.7883 0.0000 -19.0506 -14.3281 -17.9756 -0.0000 -0.0000 0.0000
 0.2420 33.8644 7.0931 -0.4236 -3.5665 -2.0676 4.3016 25.7084 7.0543 3.3437 0.0000 0.0000 -2.0918 3.8514 0.7807 -33.6484 0.0000 0.0000 5.3357 4.9596 -1.9416 4.2958 -0.0000 0.0000 -0.9633 -12.9683 1.5077 -29.7760 0.0000 -0.0000 -16.6537 -1.2846 -3.3584 28.1862 3.6683 2.9378 -21.5491 -13.1108 10.1000 -9.5535 -7.0581 -20.1343 9.4954 8.8211 16.3262 -25.1674 14.3853 -30.1684 -0.0000 -10.6957 -0.0000 -4.9654 3.3804 20.0641 -0.0000 0.0000 -0.0000 8.7677 -4.8617 -15.4319 -14.9560 -5.8139 24.3169 -0.0001 19.7883 0.0000 -19.0506 -14.3281 -17.9756 -0.0000 -0.0000 0.0000
 0.2460 33.8646 7.0914 -0.4146 -3.5699 -2.0674 4.2955 25.8049 7.0349 3.3045 0.0000 0.0000 -2.1378 3.8123 0.5988 -33.5620 0.0000 0.0000 5.3542 5.1072 -1.9480 4.2479 -0.0000 0.0000 -0.9246 -13.1008 1.5191 -29.8231 0.0000 0.0000 -16.6542 -1.2929 -3.3645 28.1808 3.6716 2.9558 -21.5512 -13.1789 10.0430 -9.4979 -7.0507 -20.0654 9.5291 8.8298 16.3269 -25.1384 14.3695 -30.2046 -0.0000 -10.7194 -0.0000 -5.0755 3.3961 20.1222 -0.0000 -0.0000 0.0000 8.8106 -4.8757 -15.4260 -14.9514 -5.8266 24.3099 -0.0001 19.8627 0.0000 -19.0939 -14.3774 -18.0494 -0.0000 -0.0000 0.0000
 0.2460 33.8646 7.0914 -0.4146 -3.5699 -2.0674 4.2955 25.8049 7.0349 3.3045 0.0000 0.0000 -2.1378 3.8123 0.5988 -33.5620 0.0000 0.0000 5.3542 5.1072 -1.9480 4.2479 -0.0000 0.0000 -0.9246 -13.1008 1.5191 -29.8231 0.0000 0.0000 -16.6542 -1.2929 -3.3645 28.1808 3.6716 2.9558 -21.5512 -13.1789 10.0430 -9.4979 -7.0507 -20.0654 9.5291 8.8298 16.3269 -25.1384 14.3695 -30.2046 -0.0000 -10.7194 -0.0000 -5.0755 3.3961 20.1222 -0.0000 -0.0000 0.0000 8.8106 -4.8757 -15.4260 -14.9514 -5.8266 24.3099 -0.0001 19.8627 0.0000 -19.0939 -14.3774 -18.0494 -0.0000 -0.0000 0.0000
 0.2477 33.8658 7.0896 -0.4123 -3.5616 -2.0679 4.3090 25.7452 7.0405 3.2953 0.0000 0.0000 -2.0568 3.7956 0.7415 -33.6617 0.0000 -0.0000 5.3454 5.0791 -1.9506 4.2503 -0.0000 -0.0000 -0.9114 -13.0677 1.5316 -29.8093 0.0000 -0.0000 -16.6631 -1.2974 -3.3759 28.1916 3.6757 2.9669 -21.5584 -13.2292 9.9945 -9.4243 -7.0310 -19.9957 9.5700 8.8189 16.3199 -25.2168 14.3913 -30.1834 -0.0000 -10.7113 -0.0000 -5.0734 3.3330 20.1090 -0.0000 -0.0000 0.0000 8.7703 -4.8551 -15.4281 -14.8022 -5.7712 24.3231 -0.0001 19.7632 0.0000 -19.2108 -14.1831 -18.1769 -0.0000 -0.0000 0.0000
 0.2477 33.8658 7.0896 -0.4123 -3.5616 -2.0679 4.3090 25.7452 7.0405 3.2953 0.0000 0.0000 -2.0568 3.7956 0.7415 -33.6617 0.0000 -0.0000 5.3454 5.0791 -1.9506 4.2503 -0.0000 -0.0000 -0.9114 -13.0677 1.5316 -29.8093 0.0000 -0.0000 -16.6631 -1.2974 -3.3759 28.1916 3.6757 2.9669 -21.5584 -13.2292 9.9945 -9.4243 -7.0310 -19.9957 9.5700 8.8189 16.3199 -25.2168 14.3913 -30.1834 -0.0000 -10.7113 -0.0000 -5.0734 3.3330 20.1090 -0.0000 -0.0000 0.0000 8.7703 -4.8551 -15.4281 -14.8022 -5.7712 24.3231 -0.0001 19.7632 0.0000 -19.2108 -14.1831 -18.1769 -0.0000 -0.0000 0.0000
 0.2527 33.8658 7.0863 -0.4116 -3.5629 -2.0689 4.2903 25.8566 7.0281 3.2799 0.0000 0.0000 -2.1140 3.7491 0.6208 -33.5951 0.0000 0.0000 5.3438 5.1202 -1.9591 4.2430 -0.0000 0.0000 -0.9069 -13.1145 1.5336 -29.8127 0.0000 -0.0000 -16.6600 -1.3114 -3.3832 28.2058 3.6709 2.9812 -21.5395 -13.2391 9.9655 -9.3832 -7.0214 -19.9398 9.5653 8.8336 16.3159 -25.2021 14.3856 -30.1988 -0.0000 -10.7192 -0.0000 -5.1416 3.3271 20.1621 -0.0000 -0.0000 0.0000 8.7686 -4.8647 -15.4326 -14.8339 -5.7812 24.3118 -0.0001 19.8275 0.0000 -19.1722 -14.2650 -18.1446 -0.0000 0.0000 -0.0000
